mtllib ./unnamed.mtl
g Cylinder
v 4.330127 0.7849956 -2.5
v 0 0.7849956 0
v 5 0.7849956 0
v 2.5 0.7849956 -4.330127
v 3.061617E-16 0.7849956 -5
v -2.5 0.7849956 -4.330127
v -4.330127 0.7849956 -2.5
v -5 0.7849956 -6.123233E-16
v -4.330127 0.7849956 2.5
v -2.5 0.7849956 4.330127
v -9.18485E-16 0.7849956 5
v 2.5 0.7849956 4.330127
v 4.330127 0.7849956 2.5
v 4.330127 0.7849956 -2.5
v 5 0.7849956 0
v 5 15.785 0
v 4.330127 15.785 -2.5
v 2.5 0.7849956 -4.330127
v 2.5 15.785 -4.330127
v 3.061617E-16 0.7849956 -5
v 3.061617E-16 15.785 -5
v -2.5 0.7849956 -4.330127
v -2.5 15.785 -4.330127
v -4.330127 0.7849956 -2.5
v -4.330127 15.785 -2.5
v -5 0.7849956 -6.123233E-16
v -5 15.785 -6.123233E-16
v -4.330127 0.7849956 2.5
v -4.330127 15.785 2.5
v -2.5 0.7849956 4.330127
v -2.5 15.785 4.330127
v -9.18485E-16 0.7849956 5
v -9.18485E-16 15.785 5
v 2.5 0.7849956 4.330127
v 2.5 15.785 4.330127
v 4.330127 0.7849956 2.5
v 4.330127 15.785 2.5
v 5 0.7849956 0
v 5 15.785 0
v 4.330127 15.785 -2.5
v 5 15.785 0
v 0 15.785 0
v 2.5 15.785 -4.330127
v 3.061617E-16 15.785 -5
v -2.5 15.785 -4.330127
v -4.330127 15.785 -2.5
v -5 15.785 -6.123233E-16
v -4.330127 15.785 2.5
v -2.5 15.785 4.330127
v -9.18485E-16 15.785 5
v 2.5 15.785 4.330127
v 4.330127 15.785 2.5

vn 0 -1 0
vn 0 -1 0
vn 0 -1 0
vn 0 -1 0
vn 0 -1 0
vn 0 -1 0
vn 0 -1 0
vn 0 -1 0
vn 0 -1 0
vn 0 -1 0
vn 0 -1 0
vn 0 -1 0
vn 0 -1 0
vn 0.8660253 0 -0.5000001
vn 1 0 0
vn 1 0 0
vn 0.8660253 0 -0.5000001
vn 0.5000001 0 -0.8660253
vn 0.5000001 0 -0.8660253
vn 0 0 -1
vn 0 0 -1
vn -0.5000001 0 -0.8660253
vn -0.5000001 0 -0.8660253
vn -0.8660253 0 -0.5000001
vn -0.8660253 0 -0.5000001
vn -1 0 0
vn -1 0 0
vn -0.8660253 0 0.5000001
vn -0.8660253 0 0.5000001
vn -0.5000001 0 0.8660253
vn -0.5000001 0 0.8660253
vn 0 0 1
vn 0 0 1
vn 0.5000001 0 0.8660253
vn 0.5000001 0 0.8660253
vn 0.8660253 0 0.5000001
vn 0.8660253 0 0.5000001
vn 1 0 0
vn 1 0 0
vn 0 1 0
vn 0 1 0
vn 0 1 0
vn 0 1 0
vn 0 1 0
vn 0 1 0
vn 0 1 0
vn 0 1 0
vn 0 1 0
vn 0 1 0
vn 0 1 0
vn 0 1 0
vn 0 1 0

vt 0.0669873 0.75
vt 0.5 0.5
vt 0 0.5
vt 0.25 0.9330127
vt 0.5 1
vt 0.75 0.9330127
vt 0.9330127 0.75
vt 1 0.5
vt 0.9330127 0.25
vt 0.75 0.06698728
vt 0.5 0
vt 0.25 0.06698728
vt 0.0669873 0.25
vt 0.08333334 0
vt 0 0
vt 0 1
vt 0.08333334 1
vt 0.1666667 0
vt 0.1666667 1
vt 0.25 0
vt 0.25 1
vt 0.3333333 0
vt 0.3333333 1
vt 0.4166667 0
vt 0.4166667 1
vt 0.5 0
vt 0.5 1
vt 0.5833333 0
vt 0.5833333 1
vt 0.6666667 0
vt 0.6666667 1
vt 0.75 0
vt 0.75 1
vt 0.8333333 0
vt 0.8333333 1
vt 0.9166667 0
vt 0.9166667 1
vt 1 0
vt 1 1
vt 0.9330127 0.75
vt 1 0.5
vt 0.5 0.5
vt 0.75 0.9330127
vt 0.5 1
vt 0.25 0.9330127
vt 0.0669873 0.75
vt 0 0.5
vt 0.0669873 0.25
vt 0.25 0.06698728
vt 0.5 0
vt 0.75 0.06698728
vt 0.9330127 0.25

usemtl Standard(Clone)
usemap Standard(Clone)
f 2/2/2 1/1/1 3/3/3
f 2/2/2 4/4/4 1/1/1
f 2/2/2 5/5/5 4/4/4
f 2/2/2 6/6/6 5/5/5
f 2/2/2 7/7/7 6/6/6
f 2/2/2 8/8/8 7/7/7
f 2/2/2 9/9/9 8/8/8
f 2/2/2 10/10/10 9/9/9
f 2/2/2 11/11/11 10/10/10
f 2/2/2 12/12/12 11/11/11
f 2/2/2 13/13/13 12/12/12
f 2/2/2 3/3/3 13/13/13
f 15/15/15 14/14/14 16/16/16
f 16/16/16 14/14/14 17/17/17
f 14/14/14 18/18/18 17/17/17
f 17/17/17 18/18/18 19/19/19
f 18/18/18 20/20/20 19/19/19
f 19/19/19 20/20/20 21/21/21
f 20/20/20 22/22/22 21/21/21
f 21/21/21 22/22/22 23/23/23
f 22/22/22 24/24/24 23/23/23
f 23/23/23 24/24/24 25/25/25
f 24/24/24 26/26/26 25/25/25
f 25/25/25 26/26/26 27/27/27
f 26/26/26 28/28/28 27/27/27
f 27/27/27 28/28/28 29/29/29
f 28/28/28 30/30/30 29/29/29
f 29/29/29 30/30/30 31/31/31
f 30/30/30 32/32/32 31/31/31
f 31/31/31 32/32/32 33/33/33
f 32/32/32 34/34/34 33/33/33
f 33/33/33 34/34/34 35/35/35
f 34/34/34 36/36/36 35/35/35
f 35/35/35 36/36/36 37/37/37
f 36/36/36 38/38/38 37/37/37
f 37/37/37 38/38/38 39/39/39
f 41/41/41 40/40/40 42/42/42
f 40/40/40 43/43/43 42/42/42
f 43/43/43 44/44/44 42/42/42
f 44/44/44 45/45/45 42/42/42
f 45/45/45 46/46/46 42/42/42
f 46/46/46 47/47/47 42/42/42
f 47/47/47 48/48/48 42/42/42
f 48/48/48 49/49/49 42/42/42
f 49/49/49 50/50/50 42/42/42
f 50/50/50 51/51/51 42/42/42
f 51/51/51 52/52/52 42/42/42
f 52/52/52 41/41/41 42/42/42
